# AST/ASF file generated using VICON BodyLanguage
# -----------------------------------------------
:version 1.10
:name VICON
:units
  mass 1.0
  length 0.45
  angle deg
:documentation
   .ast/.asf automatically generated from VICON data using
   VICON BodyBuilder and BodyLanguage model FoxedUp or BRILLIANT.MOD
:root
   order TX TY TZ RX RY RZ
   axis XYZ
   position 0 0 0  
   orientation 0 0 0 
:bonedata
  begin
     id 1 
     name lhipjoint
     direction 0.635376 -0.686425 0.353719 
     length 2.47244 
     axis 0 0 0  XYZ
  end
  begin
     id 2 
     name lfemur
     direction 0.34202 -0.939693 0  
     length 7.25268  
     axis 0 0 20  XYZ
    dof rx ry rz
    limits (-160.0 20.0)
           (-70.0 70.0)
           (-60.0 70.0)
  end
  begin
     id 3 
     name ltibia
     direction 0.34202 -0.939693 0   
     length 7.6767   
     axis 0 0 20   XYZ
    dof rx
    limits (-10.0 170.0)
  end
  begin
     id 4 
     name lfoot
     direction 0.0803374 -0.220725 0.972022   
     length 2.22945   
     axis -90 7.62852e-016 20   XYZ
    dof rx rz
    limits (-45.0 90.0)
           (-70.0 20.0)
  end
  begin
     id 5 
     name ltoes
     direction 1.53579e-011 -4.21994e-011 1   
     length 1.11848   
     axis -90 7.62852e-016 20   XYZ
    dof rx
    limits (-90.0 20.0)
  end
  begin
     id 6 
     name rhipjoint
     direction -0.664428 -0.664335 0.342336   
     length 2.55466  
     axis 0 0 0  XYZ 
  end
  begin
     id 7 
     name rfemur
     direction -0.34202 -0.939693 0   
     length 6.83172   
     axis 0 0 -20   XYZ
    dof rx ry rz
    limits (-160.0 20.0)
           (-70.0 70.0)
           (-70.0 60.0)
  end
  begin
     id 8 
     name rtibia
     direction -0.34202 -0.939693 0   
     length 7.62692   
     axis 0 0 -20   XYZ
    dof rx
    limits (-10.0 170.0)
 end
 begin
     id 9 
     name rfoot
     direction -0.0949276 -0.260811 0.960711   
     length 2.19684  
     axis -90 -7.62852e-016 -20   XYZ
    dof rx rz
    limits (-45.0 90.0)
           (-20.0 70.0)
  end
  begin
     id 10 
     name rtoes
     direction -1.53543e-011 -4.2183e-011 1   
     length 1.09848   
     axis -90 -7.62852e-016 -20   XYZ
    dof rx
    limits (-90.0 20.0)
  end
  begin
     id 11 
     name lowerback
     direction 0.0118782 0.999815 -0.0151555   
     length 2.15772   
     axis 0 0 0   XYZ
    dof rx ry rz
    limits (-20.0 45.0)
           (-30.0 30.0)
           (-30.0 30.0)
  end
  begin
     id 12 
     name upperback
     direction 0.00130825 0.999065 0.0432113   
     length 2.14863   
     axis 0 0 0   XYZ
    dof rx ry rz
    limits (-20.0 45.0)
           (-30.0 30.0)
           (-30.0 30.0)
  end
  begin
     id 13 
     name thorax
     direction -0.00347005 0.998773 0.0494011   
     length 2.14936   
     axis 0 0 0   XYZ
    dof rx ry rz
    limits (-20.0 45.0)
           (-30.0 30.0)
           (-30.0 30.0)
  end
  begin
     id 14 
     name lowerneck
     direction -0.0262159 0.99424 0.103921   
     length 1.69373   
     axis 0 0 0   XYZ
    dof rx ry rz
    limits (-20.0 45.0)
           (-30.0 30.0)
           (-30.0 30.0)
  end
  begin
     id 15 
     name upperneck
     direction 0.0353511 0.977394 -0.20845   
     length 1.70857   
     axis 0 0 0   XYZ
    dof rx ry rz
    limits (-20.0 45.0)
           (-30.0 30.0)
           (-30.0 30.0)
  end
  begin
     id 16
     name head
     direction 0.0139214 0.996594 -0.0812836  
     length 1.72777  
     axis 0 0 0   XYZ
    dof rx ry rz
    limits (-20.0 45.0)
           (-30.0 30.0)
           (-30.0 30.0)
  end
  begin
     id 17 
     name lclavicle
     direction 0.841247 0.537205 -0.0609508  
     length 3.55371  
     axis 0 0 0   XYZ
    dof ry rz
    limits (-20.0 10.0)
           (0.0 20.0)
  end
  begin
     id 18 
     name lhumerus
     direction 1 -4.48964e-011 1.60116e-018   
     length 4.91377   
     axis -180 -30 -90   XYZ
    dof rx ry rz
    limits (-60.0 90.0)
           (-90.0 90.0)
           (-90.0 90.0)
  end
  begin
     id 19
     name lradius
     direction 1 -4.48989e-011 -8.93847e-027   
     length 3.00291   
     axis -180 -30 -90   XYZ
    dof rx
    limits (-10.0 170.0)
  end
  begin
     id 20
     name lwrist
     direction 1 -4.48932e-011 -7.31504e-027   
     length 1.50145   
     axis 5.74121e-015 90 90   XYZ
    dof ry
    limits (-180.0 0.0)
 end
  begin
     id 21 
     name lhand
     direction 1 -4.48971e-011 -1.46301e-026   
     length 0.450922   
     axis 9.33524e-015 90 90   XYZ
    dof rx rz
    limits (-90.0 90.0)
           (-45.0 45.0)
  end
  begin
     id 22 
     name lfingers
     direction 1 -4.49039e-011 -2.92602e-026   
     length 0.363545   
     axis 1.86705e-014 90 90   XYZ
    dof rx
    limits (0.0 90.0)
  end
  begin
     id 23
     name lthumb
     direction 0.707107 -6.34941e-011 0.707107   
     length 0.52198   
     axis -90 45 2.85299e-015   XYZ
    dof rx rz
    limits (-45.0 45.0)
           (-45.0 45.0)
  end
  begin
     id 24 
     name rclavicle
     direction -0.825079 0.56158 -0.0622297   
     length 3.39909  
     axis 0 0 0   XYZ 
    dof ry rz
    limits (-10.0 20.0)
           (-20.0 0.0)
  end
  begin
     id 25 
     name rhumerus
     direction -1 -4.48965e-011 1.61691e-027  
     length 4.86725   
     axis -180 30 90   XYZ
    dof rx ry rz
    limits (-90.0 60.0)
           (-90.0 90.0)
           (-90.0 90.0)
  end
  begin
     id 26 
     name rradius
     direction -1 -4.48964e-011 -2.25776e-027   
     length 3.17144   
     axis -180 30 90   XYZ
    dof rx
    limits (-10.0 170.0)
  end
  begin
     id 27 
     name rwrist
     direction -1 -4.48961e-011 -7.31504e-027   
     length 1.58572   
     axis 5.74121e-015 -90 -90   XYZ
    dof ry
    limits (-180.0 0.0)
  end
  begin
     id 28
     name rhand
     direction -1 -4.49013e-011 -1.46301e-026   
     length 0.419368   
     axis 9.33524e-015 -90 -90   XYZ
    dof rx rz
    limits (-90.0 90.0)
           (-45.0 45.0)
  end
  begin
     id 29
     name rfingers
     direction -1 -4.489e-011 -2.92602e-026   
     length 0.338105   
     axis 1.86705e-014 -90 -90   XYZ
    dof rx
    limits (0.0 90.0)
  end
  begin
     id 30
     name rthumb
     direction -0.707107 -6.35022e-011 0.707107   
     length 0.485453   
     axis -90 -45 -2.85299e-015   XYZ
    dof rx rz
    limits (-45.0 45.0)
           (-45.0 45.0)
  end
:hierarchy
  begin
    root lhipjoint rhipjoint lowerback
    lhipjoint lfemur
    lfemur ltibia
    ltibia lfoot
    lfoot ltoes
    rhipjoint rfemur
    rfemur rtibia
    rtibia rfoot
    rfoot rtoes
    lowerback upperback
    upperback thorax
    thorax lowerneck lclavicle rclavicle
    lowerneck upperneck
    upperneck head
    lclavicle lhumerus
    lhumerus lradius
    lradius lwrist
    lwrist lhand lthumb
    lhand lfingers
    rclavicle rhumerus
    rhumerus rradius
    rradius rwrist
    rwrist rhand rthumb
    rhand rfingers
  end

#!OML:ASF H:\Swim 2\Project 1\Capture day 1\Session 1\male.ASF
:FULLY-SPECIFIED
:DEGREES
244
root 1.85742 14.0098 7.43728 106.58 -1.38924 -2.08589
lowerback -19.2144 1.60984 -3.21033
upperback -8.29484 2.77703 0.945174
thorax 1.60424 1.54219 3.3752
lowerneck -16.3272 -1.40054 0.644216
upperneck 44.0643 -2.0199 -0.771347
head 19.9378 -0.697761 -0.896804
rclavicle 6.36111e-015 9.14409e-015
rhumerus 86.5132 -15.6514 -19.1653
rradius 33.3026
rwrist -44.6155
rhand -23.491 -8.59119
rfingers 7.12502
rthumb 2.96895 -38.5503
lclavicle 6.36111e-015 9.14409e-015
lhumerus 97.4645 4.37675 46.976
lradius 28.2026
lwrist 32.9961
lhand -32.8317 0.909652
lfingers 7.12502
lthumb -6.05169 30.8032
rfemur -39.3882 12.4393 -5.82734
rtibia 19.1004
rfoot 12.0547 -29.9627
rtoes 13.8432
lfemur -34.1198 -19.9585 -2.50365
ltibia 30.7396
lfoot -37.4865 30.6098
ltoes 41.2996
245
root 1.84922 13.9995 7.41441 106.664 -1.33412 -2.31067
lowerback -19.3988 1.63839 -3.39469
upperback -8.3254 2.85476 1.01298
thorax 1.64498 1.58868 3.5745
lowerneck -16.3824 -1.47772 0.482616
upperneck 44.2777 -2.09975 -0.718527
head 20.1039 -0.742331 -0.861108
rclavicle -7.95139e-016 -1.59028e-015
rhumerus 86.2997 -15.3113 -18.7708
rradius 33.3499
rwrist -44.2546
rhand -23.3531 -8.92689
rfingers 7.12502
rthumb 3.10206 -38.8841
lclavicle -7.95139e-016 -1.59028e-015
lhumerus 97.2966 3.9494 47.1091
lradius 27.8915
lwrist 32.4049
lhand -33.2886 0.944795
lfingers 7.12502
lthumb -6.49282 30.8253
rfemur -40.3418 12.2045 -4.93749
rtibia 19.9411
rfoot 12.7134 -28.7634
rtoes 12.5224
lfemur -34.7206 -19.321 -3.07135
ltibia 31.1697
lfoot -34.3921 31.18
ltoes 38.7476
246
root 1.84095 13.9911 7.39119 106.746 -1.2744 -2.52454
lowerback -19.5908 1.67097 -3.6224
upperback -8.38387 2.9473 1.09019
thorax 1.65404 1.64578 3.81128
lowerneck -16.477 -1.59467 0.269313
upperneck 44.5215 -2.23597 -0.629108
head 20.307 -0.810401 -0.809882
rclavicle -1.66979e-014 -9.74045e-015
rhumerus 86.0717 -14.9424 -18.4226
rradius 33.4
rwrist -43.6837
rhand -23.1559 -9.47367
rfingers 7.12502
rthumb 3.29257 -39.428
lclavicle -1.66979e-014 -9.74045e-015
lhumerus 97.1491 3.44152 47.3207
lradius 27.5673
lwrist 31.6565
lhand -33.7487 0.986741
lfingers 7.12502
lthumb -6.93703 30.8531
rfemur -41.2613 12.0104 -4.08615
rtibia 20.719
rfoot 13.315 -27.6689
rtoes 11.1436
lfemur -35.3275 -18.7332 -3.5898
ltibia 31.5777
lfoot -31.526 31.5298
ltoes 36.0183
247
root 1.83252 13.9845 7.3679 106.812 -1.21575 -2.73166
lowerback -19.7755 1.70724 -3.89052
upperback -8.46178 3.05334 1.1752
thorax 1.63266 1.71272 4.08153
lowerneck -16.6071 -1.75467 0.0390987
upperneck 44.8 -2.42074 -0.561237
head 20.549 -0.900288 -0.777232
rclavicle -3.97569e-014 -1.66979e-014
rhumerus 85.7991 -14.5425 -18.0647
rradius 33.4697
rwrist -43.0997
rhand -23.0693 -9.92633
rfingers 7.12502
rthumb 3.37613 -39.8793
lclavicle -3.97569e-014 -1.66979e-014
lhumerus 97.0154 2.85844 47.6047
lradius 27.2455
lwrist 30.7779
lhand -34.2573 0.988324
lfingers 7.12502
lthumb -7.42795 30.8379
rfemur -42.1342 11.8619 -3.27586
rtibia 21.4396
rfoot 13.8173 -26.6982
rtoes 9.81081
lfemur -35.9226 -18.2075 -4.06878
ltibia 31.9641
lfoot -28.9972 31.7457
ltoes 33.1836
248
root 1.82397 13.9795 7.34443 106.844 -1.16615 -2.93187
lowerback -19.94 1.75006 -4.20525
upperback -8.55367 3.17767 1.26715
thorax 1.57867 1.7924 4.38829
lowerneck -16.7713 -1.96115 -0.16936
upperneck 45.1344 -2.64544 -0.578716
head 20.844 -1.00919 -0.80196
rclavicle 3.26007e-014 1.66979e-014
rhumerus 85.4607 -14.1212 -17.6563
rradius 33.5507
rwrist -42.5273
rhand -23.0794 -10.1557
rfingers 7.12502
rthumb 3.36647 -40.1089
lclavicle 3.26007e-014 1.66979e-014
lhumerus 96.8995 2.18336 47.9977
lradius 26.9347
lwrist 29.843
lhand -34.8063 0.85909
lfingers 7.12502
lthumb -7.9578 30.6893
rfemur -42.9381 11.7457 -2.50209
rtibia 22.0996
rfoot 14.2268 -25.8494
rtoes 8.64382
lfemur -36.4875 -17.7277 -4.53487
ltibia 32.3365
lfoot -26.9297 31.8423
ltoes 30.4787
249
root 1.8154 13.9754 7.32098 106.829 -1.13067 -3.1214
lowerback -20.0738 1.79931 -4.55849
upperback -8.65009 3.31814 1.36361
thorax 1.497 1.88335 4.72357
lowerneck -16.963 -2.20739 -0.340052
upperneck 45.5256 -2.89605 -0.7038
head 21.1923 -1.13121 -0.897405
rclavicle -1.19271e-014 -2.127e-014
rhumerus 85.0647 -13.6766 -17.2141
rradius 33.632
rwrist -41.971
rhand -23.2019 -10.1058
rfingers 7.12502
rthumb 3.24814 -40.0608
lclavicle -1.19271e-014 -2.127e-014
lhumerus 96.7946 1.44095 48.49
lradius 26.6575
lwrist 28.9463
lhand -35.382 0.560519
lfingers 7.12502
lthumb -8.51344 30.3689
rfemur -43.647 11.6385 -1.75223
rtibia 22.6954
rfoot 14.5089 -25.099
rtoes 7.52015
lfemur -37.0071 -17.2597 -5.01834
ltibia 32.703
lfoot -25.3455 31.8772
ltoes 28.13
250
root 1.80712 13.9716 7.29757 106.758 -1.10972 -3.28683
lowerback -20.1733 1.85559 -4.94181
upperback -8.74981 3.4736 1.46445
thorax 1.38701 1.98502 5.08181
lowerneck -17.1658 -2.48136 -0.477813
upperneck 45.9724 -3.15755 -0.924873
head 21.5912 -1.2593 -1.05582
rclavicle 1.35174e-014 3.37934e-015
rhumerus 84.6212 -13.214 -16.7522
rradius 33.6984
rwrist -41.4079
rhand -23.385 -9.86875
rfingers 7.12502
rthumb 3.07128 -39.8264
lclavicle 1.35174e-014 3.37934e-015
lhumerus 96.7005 0.623429 49.1201
lradius 26.4164
lwrist 28.1425
lhand -35.9536 0.0451663
lfingers 7.12502
lthumb -9.06501 29.8304
rfemur -44.2427 11.5564 -1.03875
rtibia 23.2271
rfoot 14.6616 -24.455
rtoes 6.74383
lfemur -37.48 -16.7828 -5.53823
ltibia 33.0696
lfoot -24.1792 31.9419
ltoes 26.1187
251
root 1.79938 13.9675 7.27446 106.634 -1.10324 -3.41474
lowerback -20.2406 1.91434 -5.3388
upperback -8.85203 3.63447 1.56531
thorax 1.25272 2.09199 5.44703
lowerneck -17.7246 -2.7665 -0.612021
upperneck 46.3988 -3.42152 -1.19319
head 22.4482 -1.37916 -1.27336
rclavicle 2.06736e-014 5.96354e-016
rhumerus 84.1569 -12.7319 -16.3081
rradius 33.7279
rwrist -40.807
rhand -23.5895 -9.50418
rfingers 7.12502
rthumb 2.87377 -39.4646
lclavicle 2.06736e-014 5.96354e-016
lhumerus 96.6071 -0.261761 49.9028
lradius 26.2112
lwrist 27.4149
lhand -36.4933 -0.629423
lfingers 7.12502
lthumb -9.58581 29.1325
rfemur -44.7226 11.4858 -0.361997
rtibia 23.6991
rfoot 14.6919 -23.8723
rtoes 5.98001
lfemur -37.9108 -16.2823 -6.1045
ltibia 33.4361
lfoot -23.3403 32.0081
ltoes 24.8034
252
root 1.79216 13.9622 7.25144 106.457 -1.11284 -3.49668
lowerback -20.2764 1.97136 -5.74313
upperback -8.95489 3.79337 1.66459
thorax 1.09793 2.20015 5.81228
lowerneck -17.9063 -3.04707 -0.727766
upperneck 46.8696 -3.67104 -1.47996
head 22.9359 -1.49744 -1.48489
rclavicle 4.92986e-014 6.95746e-015
rhumerus 83.7217 -12.2287 -15.964
rradius 33.6893
rwrist -40.0976
rhand -23.7427 -9.12899
rfingers 7.12502
rthumb 2.72588 -39.0913
lclavicle 4.92986e-014 6.95746e-015
lhumerus 96.492 -1.18738 50.7676
lradius 26.0553
lwrist 26.812
lhand -37.0061 -1.43785
lfingers 7.12502
lthumb -10.0806 28.3007
rfemur -45.0888 11.454 0.254302
rtibia 24.1239
rfoot 14.6211 -23.3626
rtoes 5.36133
lfemur -38.2982 -15.7667 -6.7186
ltibia 33.7966
lfoot -22.7192 32.0883
ltoes 24.1212
253
root 1.78536 13.9553 7.22896 106.238 -1.13649 -3.53268
lowerback -20.2937 2.02276 -6.14143
upperback -9.05544 3.94282 1.7564
thorax 0.935119 2.30455 6.16298
lowerneck -18.0607 -3.31216 -0.862769
upperneck 47.3145 -3.90777 -1.72535
head 23.4118 -1.60759 -1.67219
rclavicle 1.27222e-014 7.7526e-015
rhumerus 83.3226 -11.7178 -15.7125
rradius 33.6008
rwrist -39.4122
rhand -23.8895 -8.73247
rfingers 7.12502
rthumb 2.58408 -38.6966
lclavicle 1.27222e-014 7.7526e-015
lhumerus 96.3409 -2.11807 51.6208
lradius 25.9551
lwrist 26.286
lhand -37.5481 -2.25952
lfingers 7.12502
lthumb -10.6034 27.453
rfemur -45.3657 11.4531 0.810448
rtibia 24.5215
rfoot 14.5267 -22.8901
rtoes 4.89992
lfemur -38.6519 -15.2627 -7.36107
ltibia 34.1389
lfoot -22.2278 32.1884
ltoes 23.8515
254
root 1.77896 13.9464 7.207 105.994 -1.17343 -3.52777
lowerback -20.3074 2.06383 -6.52378
upperback -9.15033 4.07501 1.83975
thorax 0.778045 2.39995 6.49206
lowerneck -18.1807 -3.54529 -1.04686
upperneck 47.6925 -4.11775 -1.87697
head 23.8351 -1.7074 -1.79259
rclavicle 5.88403e-014 4.09496e-014
rhumerus 82.9693 -11.2064 -15.5393
rradius 33.473
rwrist -38.8125
rhand -24.0528 -8.24839
rfingers 7.12502
rthumb 2.42639 -38.2143
lclavicle 5.88403e-014 4.09496e-014
lhumerus 96.1551 -3.01179 52.4213
lradius 25.898
lwrist 25.8662
lhand -38.0482 -3.06839
lfingers 7.12502
lthumb -11.0858 26.6188
rfemur -45.5845 11.4645 1.31303
rtibia 24.9132
rfoot 14.4219 -22.429
rtoes 4.35068
lfemur -38.9823 -14.7928 -8.01244
ltibia 34.4503
lfoot -21.8054 32.281
ltoes 23.7901
255
root 1.77293 13.9354 7.18564 105.732 -1.23012 -3.49624
lowerback -20.3214 2.09177 -6.88635
upperback -9.23544 4.18542 1.91168
thorax 0.635241 2.48295 6.79385
lowerneck -18.2804 -3.74634 -1.24451
upperneck 47.9949 -4.29209 -1.98435
head 24.1921 -1.7948 -1.87571
rclavicle -5.40694e-014 -1.11319e-014
rhumerus 82.6797 -10.6907 -15.4765
rradius 33.3148
rwrist -38.3306
rhand -24.2499 -7.6145
rfingers 7.12502
rthumb 2.23598 -37.5825
lclavicle -5.40694e-014 -1.11319e-014
lhumerus 95.9384 -3.83755 53.1417
lradius 25.8618
lwrist 25.5109
lhand -38.5108 -3.84591
lfingers 7.12502
lthumb -11.5319 25.8169
rfemur -45.771 11.4684 1.7677
rtibia 25.3168
rfoot 14.3679 -21.9489
rtoes 3.83875
lfemur -39.2928 -14.3818 -8.66109
ltibia 34.7212
lfoot -21.3965 32.3686
ltoes 23.6585
256
root 1.76731 13.9222 7.16449 105.473 -1.30156 -3.45286
lowerback -20.3462 2.10828 -7.21928
upperback -9.31494 4.27511 1.97214
thorax 0.509092 2.55355 7.06357
lowerneck -18.3683 -3.9132 -1.43857
upperneck 48.2225 -4.42246 -2.0729
head 24.4779 -1.86763 -1.93581
rclavicle 4.92986e-014 -8.34896e-015
rhumerus 82.4344 -10.1827 -15.4545
rradius 33.1581
rwrist -38.0201
rhand -24.5049 -6.85207
rfingers 7.12502
rthumb 1.98976 -36.8225
lclavicle 4.92986e-014 -8.34896e-015
lhumerus 95.6938 -4.59529 53.7998
lradius 25.819
lwrist 25.1324
lhand -38.9726 -4.59745
lfingers 7.12502
lthumb -11.9773 25.0399
rfemur -45.963 11.4374 2.19486
rtibia 25.7424
rfoot 14.4232 -21.4025
rtoes 3.3115
lfemur -39.6005 -14.0636 -9.2745
ltibia 34.9488
lfoot -21.0588 32.4164
ltoes 23.3802
